# xmcd CD database file
#
# Track frame offsets:
#	150
#	18532
#	33075
#	47375
#	65877
#	83307
#	97982
#	122802
#	139625
#	162910
#	177697
#	198030
#
# Disc length: 2840 seconds
#
# Revision: 2
# Processed by: cddbd v1.5.2PL0 Copyright (c) Steve Scherf et al.
# Submitted via: CDex 1.51
#
DISCID=930b160c
DTITLE=Black Cats - We thank you
DYEAR=1997
DGENRE=Soul
TTITLE0=Groovin together
TTITLE1=(I´m a) Soul man
TTITLE2=I´ve got everything i need
TTITLE3=Turn around
TTITLE4=You don´t know like I know
TTITLE5=My  girl
TTITLE6=When something is wrong
TTITLE7=I take what i want
TTITLE8=The greatest Love of all
TTITLE9=That lucky old sun
TTITLE10=You (are the one)
TTITLE11=I Thank you
EXTD=The Black Cats\nSweet Soul Music\n YEAR: 1997
EXTT0=
EXTT1=
EXTT2=
EXTT3=
EXTT4=
EXTT5=
EXTT6=
EXTT7=
EXTT8=
EXTT9=
EXTT10=
EXTT11=
PLAYORDER=
